<mxfile host="app.diagrams.net" modified="2023-10-12T06:45:50.028Z" agent="Mozilla/5.0 (Windows NT 10.0; Win64; x64) AppleWebKit/537.36 (KHTML, like Gecko) Chrome/117.0.0.0 Safari/537.36" etag="CrKy5HhwitnDn0LxhW9V" version="22.0.4" type="github">
  <diagram id="C5RBs43oDa-KdzZeNtuy" name="Page-1">
    <mxGraphModel dx="794" dy="432" grid="1" gridSize="10" guides="1" tooltips="1" connect="1" arrows="1" fold="1" page="1" pageScale="1" pageWidth="3300" pageHeight="4681" background="#ffffff" math="0" shadow="0">
      <root>
        <mxCell id="WIyWlLk6GJQsqaUBKTNV-0" />
        <mxCell id="WIyWlLk6GJQsqaUBKTNV-1" parent="WIyWlLk6GJQsqaUBKTNV-0" />
        <mxCell id="czeEexCrRWxKReqk0F6N-5" style="edgeStyle=orthogonalEdgeStyle;rounded=0;orthogonalLoop=1;jettySize=auto;html=1;exitX=0.5;exitY=0;exitDx=0;exitDy=0;entryX=0.5;entryY=0;entryDx=0;entryDy=0;labelBackgroundColor=none;fontColor=default;" edge="1" parent="WIyWlLk6GJQsqaUBKTNV-1" source="WIyWlLk6GJQsqaUBKTNV-6" target="czeEexCrRWxKReqk0F6N-2">
          <mxGeometry relative="1" as="geometry" />
        </mxCell>
        <mxCell id="czeEexCrRWxKReqk0F6N-6" style="edgeStyle=orthogonalEdgeStyle;rounded=0;orthogonalLoop=1;jettySize=auto;html=1;exitX=1;exitY=0.5;exitDx=0;exitDy=0;labelBackgroundColor=none;fontColor=default;" edge="1" parent="WIyWlLk6GJQsqaUBKTNV-1" source="WIyWlLk6GJQsqaUBKTNV-6">
          <mxGeometry relative="1" as="geometry">
            <mxPoint x="309.3333740234375" y="210" as="targetPoint" />
          </mxGeometry>
        </mxCell>
        <mxCell id="WIyWlLk6GJQsqaUBKTNV-6" value="调温是否开始" style="rhombus;whiteSpace=wrap;html=1;shadow=0;fontFamily=Helvetica;fontSize=12;align=center;strokeWidth=1;spacing=6;spacingTop=-4;labelBackgroundColor=none;" parent="WIyWlLk6GJQsqaUBKTNV-1" vertex="1">
          <mxGeometry x="170" y="170" width="100" height="80" as="geometry" />
        </mxCell>
        <mxCell id="czeEexCrRWxKReqk0F6N-3" style="edgeStyle=orthogonalEdgeStyle;rounded=0;orthogonalLoop=1;jettySize=auto;html=1;exitX=1;exitY=0.5;exitDx=0;exitDy=0;entryX=0;entryY=0.5;entryDx=0;entryDy=0;labelBackgroundColor=none;fontColor=default;" edge="1" parent="WIyWlLk6GJQsqaUBKTNV-1" source="czeEexCrRWxKReqk0F6N-2" target="WIyWlLk6GJQsqaUBKTNV-6">
          <mxGeometry relative="1" as="geometry" />
        </mxCell>
        <mxCell id="czeEexCrRWxKReqk0F6N-2" value="数据库" style="shape=datastore;whiteSpace=wrap;html=1;labelBackgroundColor=none;" vertex="1" parent="WIyWlLk6GJQsqaUBKTNV-1">
          <mxGeometry x="56" y="180" width="60" height="60" as="geometry" />
        </mxCell>
        <mxCell id="czeEexCrRWxKReqk0F6N-12" style="edgeStyle=orthogonalEdgeStyle;rounded=0;orthogonalLoop=1;jettySize=auto;html=1;exitX=1;exitY=0.5;exitDx=0;exitDy=0;labelBackgroundColor=none;fontColor=default;shadow=0;" edge="1" parent="WIyWlLk6GJQsqaUBKTNV-1" source="czeEexCrRWxKReqk0F6N-7" target="czeEexCrRWxKReqk0F6N-11">
          <mxGeometry relative="1" as="geometry" />
        </mxCell>
        <mxCell id="czeEexCrRWxKReqk0F6N-7" value="调温阶段I：计算调温时长t" style="rounded=1;whiteSpace=wrap;html=1;fontSize=12;glass=0;strokeWidth=1;shadow=0;labelBackgroundColor=none;" vertex="1" parent="WIyWlLk6GJQsqaUBKTNV-1">
          <mxGeometry x="308" y="190" width="120" height="40" as="geometry" />
        </mxCell>
        <mxCell id="czeEexCrRWxKReqk0F6N-8" value="N" style="text;html=1;align=center;verticalAlign=middle;resizable=0;points=[];autosize=1;strokeColor=none;fillColor=none;labelBackgroundColor=none;" vertex="1" parent="WIyWlLk6GJQsqaUBKTNV-1">
          <mxGeometry x="136" y="118" width="27" height="26" as="geometry" />
        </mxCell>
        <mxCell id="czeEexCrRWxKReqk0F6N-9" value="Y" style="text;html=1;align=center;verticalAlign=middle;resizable=0;points=[];autosize=1;strokeColor=none;fillColor=none;labelBackgroundColor=none;" vertex="1" parent="WIyWlLk6GJQsqaUBKTNV-1">
          <mxGeometry x="270" y="180" width="26" height="26" as="geometry" />
        </mxCell>
        <mxCell id="czeEexCrRWxKReqk0F6N-16" style="edgeStyle=orthogonalEdgeStyle;rounded=0;orthogonalLoop=1;jettySize=auto;html=1;exitX=0.5;exitY=1;exitDx=0;exitDy=0;labelBackgroundColor=none;fontColor=default;shadow=0;" edge="1" parent="WIyWlLk6GJQsqaUBKTNV-1" source="czeEexCrRWxKReqk0F6N-11">
          <mxGeometry relative="1" as="geometry">
            <mxPoint x="511" y="281.3333740234375" as="targetPoint" />
          </mxGeometry>
        </mxCell>
        <mxCell id="czeEexCrRWxKReqk0F6N-20" style="edgeStyle=orthogonalEdgeStyle;rounded=0;orthogonalLoop=1;jettySize=auto;html=1;exitX=1;exitY=0.5;exitDx=0;exitDy=0;labelBackgroundColor=none;fontColor=default;shadow=0;" edge="1" parent="WIyWlLk6GJQsqaUBKTNV-1" source="czeEexCrRWxKReqk0F6N-11" target="czeEexCrRWxKReqk0F6N-19">
          <mxGeometry relative="1" as="geometry" />
        </mxCell>
        <mxCell id="czeEexCrRWxKReqk0F6N-11" value="t&amp;gt;=5min" style="rhombus;whiteSpace=wrap;html=1;shadow=0;fontFamily=Helvetica;fontSize=12;align=center;strokeWidth=1;spacing=6;spacingTop=-4;labelBackgroundColor=none;" vertex="1" parent="WIyWlLk6GJQsqaUBKTNV-1">
          <mxGeometry x="461" y="170" width="100" height="80" as="geometry" />
        </mxCell>
        <mxCell id="czeEexCrRWxKReqk0F6N-18" style="edgeStyle=orthogonalEdgeStyle;rounded=0;orthogonalLoop=1;jettySize=auto;html=1;exitX=0;exitY=0.5;exitDx=0;exitDy=0;labelBackgroundColor=none;fontColor=default;" edge="1" parent="WIyWlLk6GJQsqaUBKTNV-1" source="czeEexCrRWxKReqk0F6N-15">
          <mxGeometry relative="1" as="geometry">
            <mxPoint x="280" y="210" as="targetPoint" />
          </mxGeometry>
        </mxCell>
        <mxCell id="czeEexCrRWxKReqk0F6N-15" value="推荐功率power1，默认35kw" style="rounded=1;whiteSpace=wrap;html=1;fontSize=12;glass=0;strokeWidth=1;shadow=0;labelBackgroundColor=none;" vertex="1" parent="WIyWlLk6GJQsqaUBKTNV-1">
          <mxGeometry x="451" y="283" width="120" height="40" as="geometry" />
        </mxCell>
        <mxCell id="czeEexCrRWxKReqk0F6N-22" style="edgeStyle=orthogonalEdgeStyle;rounded=0;orthogonalLoop=1;jettySize=auto;html=1;exitX=1;exitY=0.5;exitDx=0;exitDy=0;entryX=0;entryY=0.5;entryDx=0;entryDy=0;labelBackgroundColor=none;fontColor=default;shadow=0;" edge="1" parent="WIyWlLk6GJQsqaUBKTNV-1" source="czeEexCrRWxKReqk0F6N-19" target="czeEexCrRWxKReqk0F6N-21">
          <mxGeometry relative="1" as="geometry" />
        </mxCell>
        <mxCell id="czeEexCrRWxKReqk0F6N-19" value="计算调温时长t以及最新的亮度斜率slope" style="rounded=1;whiteSpace=wrap;html=1;fontSize=12;glass=0;strokeWidth=1;shadow=0;labelBackgroundColor=none;" vertex="1" parent="WIyWlLk6GJQsqaUBKTNV-1">
          <mxGeometry x="650" y="190" width="120" height="40" as="geometry" />
        </mxCell>
        <mxCell id="czeEexCrRWxKReqk0F6N-23" style="edgeStyle=orthogonalEdgeStyle;rounded=0;orthogonalLoop=1;jettySize=auto;html=1;exitX=1;exitY=0.5;exitDx=0;exitDy=0;labelBackgroundColor=none;fontColor=default;shadow=0;" edge="1" parent="WIyWlLk6GJQsqaUBKTNV-1" source="czeEexCrRWxKReqk0F6N-21">
          <mxGeometry relative="1" as="geometry">
            <mxPoint x="970" y="210" as="targetPoint" />
          </mxGeometry>
        </mxCell>
        <mxCell id="czeEexCrRWxKReqk0F6N-27" style="edgeStyle=orthogonalEdgeStyle;rounded=0;orthogonalLoop=1;jettySize=auto;html=1;exitX=0.5;exitY=1;exitDx=0;exitDy=0;labelBackgroundColor=none;fontColor=default;shadow=0;" edge="1" parent="WIyWlLk6GJQsqaUBKTNV-1" source="czeEexCrRWxKReqk0F6N-21">
          <mxGeometry relative="1" as="geometry">
            <mxPoint x="850" y="280" as="targetPoint" />
          </mxGeometry>
        </mxCell>
        <mxCell id="czeEexCrRWxKReqk0F6N-21" value="t&amp;gt;=10min&lt;br&gt;or&lt;br&gt;slope小于阈值" style="rhombus;whiteSpace=wrap;html=1;shadow=0;fontFamily=Helvetica;fontSize=12;align=center;strokeWidth=1;spacing=6;spacingTop=-4;labelBackgroundColor=none;" vertex="1" parent="WIyWlLk6GJQsqaUBKTNV-1">
          <mxGeometry x="800" y="170" width="100" height="80" as="geometry" />
        </mxCell>
        <mxCell id="czeEexCrRWxKReqk0F6N-29" style="edgeStyle=orthogonalEdgeStyle;rounded=0;orthogonalLoop=1;jettySize=auto;html=1;exitX=0;exitY=0.5;exitDx=0;exitDy=0;labelBackgroundColor=none;fontColor=default;shadow=0;" edge="1" parent="WIyWlLk6GJQsqaUBKTNV-1" source="czeEexCrRWxKReqk0F6N-26">
          <mxGeometry relative="1" as="geometry">
            <mxPoint x="610" y="210" as="targetPoint" />
          </mxGeometry>
        </mxCell>
        <mxCell id="czeEexCrRWxKReqk0F6N-26" value="推荐功率power2=power1" style="rounded=1;whiteSpace=wrap;html=1;fontSize=12;glass=0;strokeWidth=1;shadow=0;labelBackgroundColor=none;" vertex="1" parent="WIyWlLk6GJQsqaUBKTNV-1">
          <mxGeometry x="790" y="283" width="120" height="40" as="geometry" />
        </mxCell>
        <mxCell id="czeEexCrRWxKReqk0F6N-30" value="Y" style="text;html=1;align=center;verticalAlign=middle;resizable=0;points=[];autosize=1;strokeColor=none;fillColor=none;labelBackgroundColor=none;shadow=0;" vertex="1" parent="WIyWlLk6GJQsqaUBKTNV-1">
          <mxGeometry x="561" y="180" width="30" height="30" as="geometry" />
        </mxCell>
        <mxCell id="czeEexCrRWxKReqk0F6N-31" value="N" style="text;html=1;align=center;verticalAlign=middle;resizable=0;points=[];autosize=1;strokeColor=none;fillColor=none;labelBackgroundColor=none;shadow=0;" vertex="1" parent="WIyWlLk6GJQsqaUBKTNV-1">
          <mxGeometry x="475" y="248" width="30" height="30" as="geometry" />
        </mxCell>
        <mxCell id="czeEexCrRWxKReqk0F6N-32" value="Y" style="text;html=1;align=center;verticalAlign=middle;resizable=0;points=[];autosize=1;strokeColor=none;fillColor=none;labelBackgroundColor=none;shadow=0;" vertex="1" parent="WIyWlLk6GJQsqaUBKTNV-1">
          <mxGeometry x="910" y="176" width="30" height="30" as="geometry" />
        </mxCell>
        <mxCell id="czeEexCrRWxKReqk0F6N-33" value="N" style="text;html=1;align=center;verticalAlign=middle;resizable=0;points=[];autosize=1;strokeColor=none;fillColor=none;labelBackgroundColor=none;shadow=0;" vertex="1" parent="WIyWlLk6GJQsqaUBKTNV-1">
          <mxGeometry x="810" y="248" width="30" height="30" as="geometry" />
        </mxCell>
        <mxCell id="czeEexCrRWxKReqk0F6N-34" value="调温阶段II：获取当前液面温度值tempe以及第一阶段结束时刻t1以及当前时刻t2" style="rounded=1;whiteSpace=wrap;html=1;fontSize=12;glass=0;strokeWidth=1;shadow=0;labelBackgroundColor=none;" vertex="1" parent="WIyWlLk6GJQsqaUBKTNV-1">
          <mxGeometry x="970" y="175" width="120" height="70" as="geometry" />
        </mxCell>
        <mxCell id="czeEexCrRWxKReqk0F6N-42" style="edgeStyle=orthogonalEdgeStyle;rounded=0;orthogonalLoop=1;jettySize=auto;html=1;exitX=1;exitY=0.5;exitDx=0;exitDy=0;entryX=0;entryY=0.5;entryDx=0;entryDy=0;labelBackgroundColor=none;fontColor=default;" edge="1" parent="WIyWlLk6GJQsqaUBKTNV-1" source="czeEexCrRWxKReqk0F6N-35" target="czeEexCrRWxKReqk0F6N-41">
          <mxGeometry relative="1" as="geometry" />
        </mxCell>
        <mxCell id="czeEexCrRWxKReqk0F6N-35" value="tempe与53差值在0.1以内" style="rhombus;whiteSpace=wrap;html=1;shadow=0;fontFamily=Helvetica;fontSize=12;align=center;strokeWidth=1;spacing=6;spacingTop=-4;labelBackgroundColor=none;" vertex="1" parent="WIyWlLk6GJQsqaUBKTNV-1">
          <mxGeometry x="1140" y="170" width="100" height="80" as="geometry" />
        </mxCell>
        <mxCell id="czeEexCrRWxKReqk0F6N-36" style="edgeStyle=orthogonalEdgeStyle;rounded=0;orthogonalLoop=1;jettySize=auto;html=1;exitX=1;exitY=0.5;exitDx=0;exitDy=0;entryX=0;entryY=0.5;entryDx=0;entryDy=0;labelBackgroundColor=none;fontColor=default;" edge="1" parent="WIyWlLk6GJQsqaUBKTNV-1" source="czeEexCrRWxKReqk0F6N-34" target="czeEexCrRWxKReqk0F6N-35">
          <mxGeometry relative="1" as="geometry" />
        </mxCell>
        <mxCell id="czeEexCrRWxKReqk0F6N-39" style="edgeStyle=orthogonalEdgeStyle;rounded=0;orthogonalLoop=1;jettySize=auto;html=1;exitX=0;exitY=0.5;exitDx=0;exitDy=0;labelBackgroundColor=none;fontColor=default;" edge="1" parent="WIyWlLk6GJQsqaUBKTNV-1" source="czeEexCrRWxKReqk0F6N-37">
          <mxGeometry relative="1" as="geometry">
            <mxPoint x="940" y="210" as="targetPoint" />
          </mxGeometry>
        </mxCell>
        <mxCell id="czeEexCrRWxKReqk0F6N-37" value="推荐功率power3=power2+1.0*(t2 - t1)" style="rounded=1;whiteSpace=wrap;html=1;fontSize=12;glass=0;strokeWidth=1;shadow=0;labelBackgroundColor=none;" vertex="1" parent="WIyWlLk6GJQsqaUBKTNV-1">
          <mxGeometry x="1120" y="283" width="120" height="40" as="geometry" />
        </mxCell>
        <mxCell id="czeEexCrRWxKReqk0F6N-38" style="edgeStyle=orthogonalEdgeStyle;rounded=0;orthogonalLoop=1;jettySize=auto;html=1;exitX=0.5;exitY=1;exitDx=0;exitDy=0;entryX=0.583;entryY=-0.075;entryDx=0;entryDy=0;entryPerimeter=0;labelBackgroundColor=none;fontColor=default;" edge="1" parent="WIyWlLk6GJQsqaUBKTNV-1" source="czeEexCrRWxKReqk0F6N-35" target="czeEexCrRWxKReqk0F6N-37">
          <mxGeometry relative="1" as="geometry" />
        </mxCell>
        <mxCell id="czeEexCrRWxKReqk0F6N-40" value="N" style="text;html=1;align=center;verticalAlign=middle;resizable=0;points=[];autosize=1;strokeColor=none;fillColor=none;labelBackgroundColor=none;" vertex="1" parent="WIyWlLk6GJQsqaUBKTNV-1">
          <mxGeometry x="1150" y="248" width="30" height="30" as="geometry" />
        </mxCell>
        <mxCell id="czeEexCrRWxKReqk0F6N-46" style="edgeStyle=orthogonalEdgeStyle;rounded=0;orthogonalLoop=1;jettySize=auto;html=1;exitX=1;exitY=0.5;exitDx=0;exitDy=0;entryX=0;entryY=0.5;entryDx=0;entryDy=0;" edge="1" parent="WIyWlLk6GJQsqaUBKTNV-1" source="czeEexCrRWxKReqk0F6N-41" target="czeEexCrRWxKReqk0F6N-44">
          <mxGeometry relative="1" as="geometry" />
        </mxCell>
        <mxCell id="czeEexCrRWxKReqk0F6N-41" value="调温阶段III：枚举功率power4滚动预测35min的亮度变化" style="rounded=1;whiteSpace=wrap;html=1;fontSize=12;glass=0;strokeWidth=1;shadow=0;labelBackgroundColor=none;" vertex="1" parent="WIyWlLk6GJQsqaUBKTNV-1">
          <mxGeometry x="1300" y="180" width="120" height="60" as="geometry" />
        </mxCell>
        <mxCell id="czeEexCrRWxKReqk0F6N-43" value="Y" style="text;html=1;align=center;verticalAlign=middle;resizable=0;points=[];autosize=1;strokeColor=none;fillColor=none;labelBackgroundColor=none;" vertex="1" parent="WIyWlLk6GJQsqaUBKTNV-1">
          <mxGeometry x="1260" y="176" width="30" height="30" as="geometry" />
        </mxCell>
        <mxCell id="czeEexCrRWxKReqk0F6N-47" style="edgeStyle=orthogonalEdgeStyle;rounded=0;orthogonalLoop=1;jettySize=auto;html=1;exitX=1;exitY=0.5;exitDx=0;exitDy=0;" edge="1" parent="WIyWlLk6GJQsqaUBKTNV-1" source="czeEexCrRWxKReqk0F6N-44" target="czeEexCrRWxKReqk0F6N-45">
          <mxGeometry relative="1" as="geometry" />
        </mxCell>
        <mxCell id="czeEexCrRWxKReqk0F6N-44" value="计算最后5min的亮度最大值、最小值以及最后一个点的亮度斜率slope1" style="rounded=1;whiteSpace=wrap;html=1;fontSize=12;glass=0;strokeWidth=1;shadow=0;labelBackgroundColor=none;" vertex="1" parent="WIyWlLk6GJQsqaUBKTNV-1">
          <mxGeometry x="1460" y="180" width="130" height="60" as="geometry" />
        </mxCell>
        <mxCell id="czeEexCrRWxKReqk0F6N-51" style="edgeStyle=orthogonalEdgeStyle;rounded=0;orthogonalLoop=1;jettySize=auto;html=1;exitX=1;exitY=0.5;exitDx=0;exitDy=0;" edge="1" parent="WIyWlLk6GJQsqaUBKTNV-1" source="czeEexCrRWxKReqk0F6N-45">
          <mxGeometry relative="1" as="geometry">
            <mxPoint x="1850" y="210" as="targetPoint" />
          </mxGeometry>
        </mxCell>
        <mxCell id="czeEexCrRWxKReqk0F6N-57" style="edgeStyle=orthogonalEdgeStyle;rounded=0;orthogonalLoop=1;jettySize=auto;html=1;exitX=0.5;exitY=1;exitDx=0;exitDy=0;" edge="1" parent="WIyWlLk6GJQsqaUBKTNV-1" source="czeEexCrRWxKReqk0F6N-45">
          <mxGeometry relative="1" as="geometry">
            <mxPoint x="1725" y="280" as="targetPoint" />
            <Array as="points">
              <mxPoint x="1725" y="280" />
              <mxPoint x="1725" y="280" />
            </Array>
          </mxGeometry>
        </mxCell>
        <mxCell id="czeEexCrRWxKReqk0F6N-45" value="最大值与最小值在50左右，且slope1与设定斜率阈值差值在0.01内" style="rhombus;whiteSpace=wrap;html=1;shadow=0;fontFamily=Helvetica;fontSize=12;align=center;strokeWidth=1;spacing=6;spacingTop=-4;labelBackgroundColor=none;" vertex="1" parent="WIyWlLk6GJQsqaUBKTNV-1">
          <mxGeometry x="1650" y="170" width="150" height="80" as="geometry" />
        </mxCell>
        <mxCell id="czeEexCrRWxKReqk0F6N-54" style="edgeStyle=orthogonalEdgeStyle;rounded=0;orthogonalLoop=1;jettySize=auto;html=1;exitX=1;exitY=0.5;exitDx=0;exitDy=0;entryX=0;entryY=0.5;entryDx=0;entryDy=0;" edge="1" parent="WIyWlLk6GJQsqaUBKTNV-1" source="czeEexCrRWxKReqk0F6N-52" target="czeEexCrRWxKReqk0F6N-53">
          <mxGeometry relative="1" as="geometry" />
        </mxCell>
        <mxCell id="czeEexCrRWxKReqk0F6N-52" value="推荐功率power4，如果枚举功率均不合适，引晶功率取为引晶锁定时的功率值加上10kw（根据统计得出）" style="rounded=1;whiteSpace=wrap;html=1;fontSize=12;glass=0;strokeWidth=1;shadow=0;labelBackgroundColor=none;" vertex="1" parent="WIyWlLk6GJQsqaUBKTNV-1">
          <mxGeometry x="1850" y="168.75" width="140" height="82.5" as="geometry" />
        </mxCell>
        <mxCell id="czeEexCrRWxKReqk0F6N-53" value="调温结束" style="rounded=1;whiteSpace=wrap;html=1;fontSize=12;glass=0;strokeWidth=1;shadow=0;labelBackgroundColor=none;" vertex="1" parent="WIyWlLk6GJQsqaUBKTNV-1">
          <mxGeometry x="2040" y="180" width="120" height="60" as="geometry" />
        </mxCell>
        <mxCell id="czeEexCrRWxKReqk0F6N-56" value="继续枚举功率" style="rounded=1;whiteSpace=wrap;html=1;fontSize=12;glass=0;strokeWidth=1;shadow=0;labelBackgroundColor=none;" vertex="1" parent="WIyWlLk6GJQsqaUBKTNV-1">
          <mxGeometry x="1665" y="283" width="120" height="40" as="geometry" />
        </mxCell>
        <mxCell id="czeEexCrRWxKReqk0F6N-58" style="edgeStyle=orthogonalEdgeStyle;rounded=0;orthogonalLoop=1;jettySize=auto;html=1;exitX=0;exitY=0.5;exitDx=0;exitDy=0;entryX=0.378;entryY=1.089;entryDx=0;entryDy=0;entryPerimeter=0;" edge="1" parent="WIyWlLk6GJQsqaUBKTNV-1" source="czeEexCrRWxKReqk0F6N-56" target="czeEexCrRWxKReqk0F6N-43">
          <mxGeometry relative="1" as="geometry" />
        </mxCell>
        <mxCell id="czeEexCrRWxKReqk0F6N-61" style="edgeStyle=orthogonalEdgeStyle;rounded=0;orthogonalLoop=1;jettySize=auto;html=1;exitX=1;exitY=0.5;exitDx=0;exitDy=0;entryX=0;entryY=0.5;entryDx=0;entryDy=0;" edge="1" parent="WIyWlLk6GJQsqaUBKTNV-1" source="czeEexCrRWxKReqk0F6N-59" target="czeEexCrRWxKReqk0F6N-60">
          <mxGeometry relative="1" as="geometry" />
        </mxCell>
        <mxCell id="czeEexCrRWxKReqk0F6N-59" value="数据库" style="shape=datastore;whiteSpace=wrap;html=1;labelBackgroundColor=none;" vertex="1" parent="WIyWlLk6GJQsqaUBKTNV-1">
          <mxGeometry x="50" y="470" width="60" height="60" as="geometry" />
        </mxCell>
        <mxCell id="czeEexCrRWxKReqk0F6N-62" style="edgeStyle=orthogonalEdgeStyle;rounded=0;orthogonalLoop=1;jettySize=auto;html=1;exitX=0.5;exitY=0;exitDx=0;exitDy=0;entryX=0.5;entryY=0;entryDx=0;entryDy=0;" edge="1" parent="WIyWlLk6GJQsqaUBKTNV-1" source="czeEexCrRWxKReqk0F6N-60" target="czeEexCrRWxKReqk0F6N-59">
          <mxGeometry relative="1" as="geometry" />
        </mxCell>
        <mxCell id="czeEexCrRWxKReqk0F6N-64" style="edgeStyle=orthogonalEdgeStyle;rounded=0;orthogonalLoop=1;jettySize=auto;html=1;exitX=1;exitY=0.5;exitDx=0;exitDy=0;" edge="1" parent="WIyWlLk6GJQsqaUBKTNV-1" source="czeEexCrRWxKReqk0F6N-60">
          <mxGeometry relative="1" as="geometry">
            <mxPoint x="330" y="500" as="targetPoint" />
          </mxGeometry>
        </mxCell>
        <mxCell id="czeEexCrRWxKReqk0F6N-60" value="调温是否开始" style="rhombus;whiteSpace=wrap;html=1;shadow=0;fontFamily=Helvetica;fontSize=12;align=center;strokeWidth=1;spacing=6;spacingTop=-4;labelBackgroundColor=none;" vertex="1" parent="WIyWlLk6GJQsqaUBKTNV-1">
          <mxGeometry x="163" y="460" width="100" height="80" as="geometry" />
        </mxCell>
        <mxCell id="czeEexCrRWxKReqk0F6N-63" value="N" style="text;html=1;align=center;verticalAlign=middle;resizable=0;points=[];autosize=1;strokeColor=none;fillColor=none;" vertex="1" parent="WIyWlLk6GJQsqaUBKTNV-1">
          <mxGeometry x="125" y="398" width="30" height="30" as="geometry" />
        </mxCell>
        <mxCell id="czeEexCrRWxKReqk0F6N-65" value="Y" style="text;html=1;align=center;verticalAlign=middle;resizable=0;points=[];autosize=1;strokeColor=none;fillColor=none;" vertex="1" parent="WIyWlLk6GJQsqaUBKTNV-1">
          <mxGeometry x="270" y="460" width="30" height="30" as="geometry" />
        </mxCell>
        <mxCell id="czeEexCrRWxKReqk0F6N-68" style="edgeStyle=orthogonalEdgeStyle;rounded=0;orthogonalLoop=1;jettySize=auto;html=1;exitX=1;exitY=0.5;exitDx=0;exitDy=0;entryX=0;entryY=0.5;entryDx=0;entryDy=0;" edge="1" parent="WIyWlLk6GJQsqaUBKTNV-1" source="czeEexCrRWxKReqk0F6N-66" target="czeEexCrRWxKReqk0F6N-67">
          <mxGeometry relative="1" as="geometry" />
        </mxCell>
        <mxCell id="czeEexCrRWxKReqk0F6N-66" value="调温倒计时，默认60min" style="rounded=1;whiteSpace=wrap;html=1;fontSize=12;glass=0;strokeWidth=1;shadow=0;labelBackgroundColor=none;" vertex="1" parent="WIyWlLk6GJQsqaUBKTNV-1">
          <mxGeometry x="331" y="470" width="120" height="60" as="geometry" />
        </mxCell>
        <mxCell id="czeEexCrRWxKReqk0F6N-71" style="edgeStyle=orthogonalEdgeStyle;rounded=0;orthogonalLoop=1;jettySize=auto;html=1;exitX=1;exitY=0.5;exitDx=0;exitDy=0;entryX=0;entryY=0.5;entryDx=0;entryDy=0;" edge="1" parent="WIyWlLk6GJQsqaUBKTNV-1" source="czeEexCrRWxKReqk0F6N-67" target="czeEexCrRWxKReqk0F6N-69">
          <mxGeometry relative="1" as="geometry" />
        </mxCell>
        <mxCell id="czeEexCrRWxKReqk0F6N-67" value="锁定引晶功率时校准倒计时时间，默认为35min" style="rounded=1;whiteSpace=wrap;html=1;fontSize=12;glass=0;strokeWidth=1;shadow=0;labelBackgroundColor=none;" vertex="1" parent="WIyWlLk6GJQsqaUBKTNV-1">
          <mxGeometry x="516" y="470" width="120" height="60" as="geometry" />
        </mxCell>
        <mxCell id="czeEexCrRWxKReqk0F6N-72" style="edgeStyle=orthogonalEdgeStyle;rounded=0;orthogonalLoop=1;jettySize=auto;html=1;exitX=1;exitY=0.5;exitDx=0;exitDy=0;entryX=0;entryY=0.5;entryDx=0;entryDy=0;" edge="1" parent="WIyWlLk6GJQsqaUBKTNV-1" source="czeEexCrRWxKReqk0F6N-69" target="czeEexCrRWxKReqk0F6N-70">
          <mxGeometry relative="1" as="geometry" />
        </mxCell>
        <mxCell id="czeEexCrRWxKReqk0F6N-69" value="倒计时结束" style="rounded=1;whiteSpace=wrap;html=1;fontSize=12;glass=0;strokeWidth=1;shadow=0;labelBackgroundColor=none;" vertex="1" parent="WIyWlLk6GJQsqaUBKTNV-1">
          <mxGeometry x="680" y="470" width="120" height="60" as="geometry" />
        </mxCell>
        <mxCell id="czeEexCrRWxKReqk0F6N-70" value="调温结束" style="rounded=1;whiteSpace=wrap;html=1;fontSize=12;glass=0;strokeWidth=1;shadow=0;labelBackgroundColor=none;" vertex="1" parent="WIyWlLk6GJQsqaUBKTNV-1">
          <mxGeometry x="850" y="470" width="120" height="60" as="geometry" />
        </mxCell>
        <mxCell id="czeEexCrRWxKReqk0F6N-75" value="Y" style="text;html=1;align=center;verticalAlign=middle;resizable=0;points=[];autosize=1;strokeColor=none;fillColor=none;" vertex="1" parent="WIyWlLk6GJQsqaUBKTNV-1">
          <mxGeometry x="1800" y="178" width="30" height="30" as="geometry" />
        </mxCell>
        <mxCell id="czeEexCrRWxKReqk0F6N-76" value="N" style="text;html=1;align=center;verticalAlign=middle;resizable=0;points=[];autosize=1;strokeColor=none;fillColor=none;" vertex="1" parent="WIyWlLk6GJQsqaUBKTNV-1">
          <mxGeometry x="1680" y="245" width="30" height="30" as="geometry" />
        </mxCell>
        <mxCell id="czeEexCrRWxKReqk0F6N-77" value="&lt;font style=&quot;font-size: 14px;&quot;&gt;注：以上数值用于举例，便于理解调温的推荐过程，不是最终的数值，可做成配置项，根据实际情况进行调整&lt;/font&gt;" style="text;html=1;align=center;verticalAlign=middle;resizable=0;points=[];autosize=1;strokeColor=none;fillColor=none;" vertex="1" parent="WIyWlLk6GJQsqaUBKTNV-1">
          <mxGeometry x="55" y="620" width="700" height="30" as="geometry" />
        </mxCell>
      </root>
    </mxGraphModel>
  </diagram>
</mxfile>
